<svg width="162" height="48" viewBox="0 0 162 48" fill="none" xmlns="http://www.w3.org/2000/svg">
    <path d="M149.099 0.000156H12.908C12.4115 0.000156 11.921 0.000156 11.4259 0.002556C11.0115 0.004956 10.6003 0.011928 10.1819 0.017796C9.2728 0.0272782 8.36589 0.0981675 7.46899 0.229848C6.57336 0.364395 5.70578 0.618055 4.8956 0.982248C4.08641 1.34952 3.34704 1.82676 2.70429 2.39664C2.05817 2.96492 1.51958 3.62178 1.10923 4.34195C0.697744 5.06069 0.412419 5.83088 0.263109 6.62593C0.112379 7.41998 0.0312704 8.22318 0.0205099 9.02833C0.00794675 9.39625 0.00662003 9.7654 0 10.1334V37.8705C0.00662003 38.2431 0.00794675 38.604 0.0205099 38.9768C0.0312737 39.7819 0.112383 40.585 0.263109 41.379C0.412007 42.1745 0.697348 42.9452 1.10923 43.6642C1.51939 44.382 2.05806 45.0362 2.70429 45.6014C3.3446 46.1738 4.08445 46.6513 4.8956 47.0158C5.70577 47.381 6.57326 47.6361 7.46899 47.7728C8.36604 47.9034 9.27286 47.9743 10.1819 47.9849C10.6003 47.9931 11.0115 47.9978 11.4259 47.9978C11.921 48.0002 12.4115 48.0002 12.908 48.0002H149.099C149.586 48.0002 150.08 48.0002 150.567 47.9978C150.979 47.9978 151.402 47.9931 151.815 47.9849C152.722 47.9749 153.627 47.9039 154.522 47.7728C155.421 47.6352 156.292 47.3801 157.106 47.0158C157.916 46.6511 158.655 46.1736 159.295 45.6014C159.94 45.034 160.48 44.3803 160.895 43.6642C161.304 42.9447 161.586 42.1741 161.733 41.379C161.884 40.5849 161.968 39.7819 161.984 38.9768C161.989 38.604 161.989 38.2431 161.989 37.8705C162 37.4345 162 37.001 162 36.5579V11.4435C162 11.0041 162 10.5681 161.989 10.1334C161.989 9.7654 161.989 9.39625 161.984 9.02828C161.968 8.22306 161.884 7.42004 161.733 6.62588C161.586 5.83129 161.303 5.06116 160.895 4.3419C160.059 2.89839 158.734 1.72339 157.106 0.98214C156.292 0.618837 155.421 0.365245 154.522 0.22974C153.627 0.0974794 152.722 0.0265653 151.815 0.017628C151.402 0.011772 150.979 0.00474 150.567 0.0024C150.08 0 149.586 0 149.099 0V0.000156Z" fill="#A6A6A6"/>
    <path d="M11.3162 46.9535C10.903 46.9535 10.4998 46.9489 10.0899 46.9407C9.24064 46.9309 8.3934 46.8655 7.55508 46.7449C6.7734 46.6258 6.01615 46.4041 5.30833 46.0873C4.607 45.7731 3.96733 45.3611 3.41382 44.8671C2.8523 44.379 2.38481 43.8128 2.02988 43.191C1.67103 42.5652 1.42269 41.8944 1.2935 41.2019C1.15399 40.4579 1.07851 39.7056 1.06771 38.9515C1.05911 38.6983 1.04785 37.8555 1.04785 37.8555V10.1291C1.04785 10.1291 1.05984 9.29919 1.06777 9.05538C1.07811 8.30244 1.15316 7.55129 1.29225 6.80843C1.42168 6.11411 1.67022 5.44136 2.02925 4.81349C2.38288 4.19214 2.84778 3.62552 3.40591 3.1356C3.96342 2.64103 4.60514 2.22692 5.30767 1.90838C6.01386 1.59257 6.76967 1.37249 7.54978 1.25551C8.39085 1.13377 9.24104 1.06795 10.0932 1.0586L11.3169 1.04395H150.684L151.922 1.05919C152.767 1.06807 153.609 1.1333 154.443 1.25434C155.231 1.37278 155.994 1.5944 156.709 1.91189C158.116 2.55384 159.261 3.56947 159.984 4.81642C160.337 5.43996 160.582 6.10721 160.709 6.79554C160.85 7.54449 160.929 8.30155 160.945 9.06066C160.949 9.40057 160.949 9.76569 160.949 10.1291C160.96 10.5791 160.96 11.0076 160.96 11.4395V36.5591C160.96 36.9952 160.96 37.4207 160.949 37.8496C160.949 38.24 160.949 38.5975 160.944 38.9655C160.928 39.7111 160.851 40.4546 160.712 41.1902C160.586 41.8876 160.339 42.5636 159.98 43.1946C159.622 43.8096 159.158 44.3709 158.602 44.8578C158.048 45.3544 157.408 45.7688 156.705 46.085C155.992 46.4043 155.23 46.6268 154.443 46.7449C153.604 46.8661 152.757 46.9316 151.908 46.9407C151.511 46.9489 151.095 46.9535 150.691 46.9535L149.221 46.9559L11.3162 46.9535Z" fill="black"/>
    <path d="M39.3564 24.3608C39.3693 23.3592 39.6353 22.3771 40.1298 21.506C40.6242 20.6348 41.3309 19.9029 42.1843 19.3783C41.6422 18.6041 40.927 17.967 40.0956 17.5175C39.2643 17.0681 38.3395 16.8187 37.3949 16.7891C35.3798 16.5776 33.4262 17.9949 32.3994 17.9949C31.3527 17.9949 29.7717 16.8101 28.0692 16.8451C26.968 16.8807 25.8948 17.2009 24.9541 17.7746C24.0135 18.3483 23.2374 19.1558 22.7017 20.1186C20.3809 24.1367 22.112 30.0419 24.3351 33.2899C25.4474 34.8803 26.7473 36.6568 28.4483 36.5938C30.1127 36.5248 30.7344 35.5324 32.7436 35.5324C34.7341 35.5324 35.3173 36.5938 37.0528 36.5538C38.8388 36.5248 39.9641 34.9563 41.0374 33.3508C41.8365 32.2176 42.4515 30.9651 42.8595 29.6398C41.8218 29.2009 40.9363 28.4663 40.3134 27.5275C39.6904 26.5888 39.3576 25.4874 39.3564 24.3608Z" fill="white"/>
    <path d="M36.0785 14.6531C37.0523 13.484 37.5321 11.9814 37.4159 10.4644C35.9281 10.6206 34.5538 11.3317 33.5668 12.4559C33.0842 13.0051 32.7146 13.644 32.4792 14.3361C32.2437 15.0283 32.1469 15.76 32.1944 16.4896C32.9385 16.4972 33.6747 16.3359 34.3475 16.0178C35.0203 15.6997 35.6122 15.2331 36.0785 14.6531Z" fill="white"/>
    <path d="M60.3963 32.5677H54.7162L53.3521 36.5954H50.9463L56.3264 21.6938H58.826L64.2061 36.5954H61.7592L60.3963 32.5677ZM55.3045 30.7091H59.8069L57.5874 24.1724H57.5252L55.3045 30.7091Z" fill="white"/>
    <path d="M75.8248 31.1637C75.8248 34.5399 74.0178 36.709 71.2909 36.709C70.6001 36.7452 69.9131 36.5861 69.3085 36.2499C68.704 35.9137 68.2063 35.4141 67.8725 34.8082H67.8209V40.1895H65.5908V25.7309H67.7495V27.5379H67.7905C68.1396 26.935 68.6457 26.438 69.2548 26.0997C69.864 25.7615 70.5535 25.5948 71.2498 25.6172C74.0072 25.6172 75.8248 27.7969 75.8248 31.1637ZM73.5327 31.1637C73.5327 28.9641 72.3959 27.518 70.6616 27.518C68.9576 27.518 67.8116 28.9946 67.8116 31.1637C67.8116 33.3528 68.9576 34.8188 70.6616 34.8188C72.3959 34.8188 73.5327 33.3833 73.5327 31.1637Z" fill="white"/>
    <path d="M87.7829 31.1637C87.7829 34.5399 85.9758 36.709 83.2489 36.709C82.5581 36.7452 81.8711 36.586 81.2665 36.2499C80.662 35.9137 80.1643 35.4141 79.8305 34.8082H79.7789V40.1895H77.5488V25.7309H79.7074V27.5379H79.7484C80.0976 26.935 80.6037 26.4379 81.2128 26.0997C81.822 25.7615 82.5114 25.5948 83.2078 25.6172C85.9653 25.6172 87.7829 27.7969 87.7829 31.1637ZM85.4907 31.1637C85.4907 28.9641 84.3539 27.518 82.6196 27.518C80.9157 27.518 79.7696 28.9946 79.7696 31.1637C79.7696 33.3528 80.9157 34.8188 82.6196 34.8188C84.3539 34.8188 85.4907 33.3833 85.4907 31.1637H85.4907Z" fill="white"/>
    <path d="M95.6862 32.4434C95.8514 33.9212 97.287 34.8914 99.2487 34.8914C101.128 34.8914 102.481 33.9211 102.481 32.5887C102.481 31.432 101.665 30.7395 99.7338 30.2649L97.8026 29.7996C95.0663 29.1387 93.7959 27.859 93.7959 25.7824C93.7959 23.2113 96.0366 21.4453 99.2182 21.4453C102.367 21.4453 104.526 23.2113 104.598 25.7824H102.347C102.212 24.2953 100.983 23.3977 99.1865 23.3977C97.39 23.3977 96.1608 24.3059 96.1608 25.6277C96.1608 26.6813 96.9459 27.3012 98.8666 27.7757L100.508 28.1789C103.566 28.9019 104.836 30.1301 104.836 32.3097C104.836 35.0976 102.615 36.8437 99.0834 36.8437C95.7787 36.8437 93.5475 35.1386 93.4033 32.4433L95.6862 32.4434Z" fill="white"/>
    <path d="M109.649 23.1597V25.7308H111.715V27.4968H109.649V33.4862C109.649 34.4167 110.063 34.8503 110.971 34.8503C111.217 34.846 111.461 34.8288 111.705 34.7987V36.5542C111.297 36.6305 110.882 36.665 110.466 36.6573C108.267 36.6573 107.409 35.8311 107.409 33.7241V27.4968H105.829V25.7308H107.409V23.1597H109.649Z" fill="white"/>
    <path d="M112.911 31.1636C112.911 27.7452 114.924 25.5972 118.064 25.5972C121.214 25.5972 123.218 27.7452 123.218 31.1636C123.218 34.5913 121.224 36.73 118.064 36.73C114.904 36.73 112.911 34.5913 112.911 31.1636ZM120.946 31.1636C120.946 28.8187 119.871 27.4347 118.064 27.4347C116.257 27.4347 115.183 28.8292 115.183 31.1636C115.183 33.5179 116.257 34.8913 118.064 34.8913C119.871 34.8913 120.945 33.5179 120.945 31.1636H120.946Z" fill="white"/>
    <path d="M125.057 25.7308H127.184V27.58H127.235C127.379 27.0025 127.717 26.4921 128.193 26.1346C128.669 25.7771 129.254 25.5944 129.848 25.6171C130.105 25.6162 130.362 25.6441 130.613 25.7003V27.7863C130.288 27.6871 129.95 27.6416 129.611 27.6515C129.287 27.6384 128.964 27.6955 128.664 27.819C128.364 27.9424 128.094 28.1293 127.874 28.3668C127.653 28.6042 127.486 28.8867 127.385 29.1947C127.283 29.5027 127.25 29.829 127.287 30.1511V36.5953H125.057L125.057 25.7308Z" fill="white"/>
    <path d="M140.895 33.4042C140.595 35.3765 138.674 36.73 136.217 36.73C133.056 36.73 131.095 34.6124 131.095 31.2151C131.095 27.8073 133.067 25.5972 136.123 25.5972C139.129 25.5972 141.019 27.662 141.019 30.9562V31.7202H133.346V31.855C133.31 32.2548 133.361 32.6576 133.493 33.0366C133.625 33.4156 133.836 33.7622 134.113 34.0532C134.389 34.3443 134.724 34.5732 135.096 34.7248C135.468 34.8763 135.867 34.9471 136.269 34.9323C136.796 34.9817 137.324 34.8596 137.776 34.5843C138.229 34.309 138.58 33.8951 138.778 33.4042L140.895 33.4042ZM133.356 30.1616H138.788C138.808 29.8021 138.754 29.4423 138.628 29.1049C138.502 28.7674 138.308 28.4596 138.058 28.2007C137.808 27.9417 137.507 27.7373 137.174 27.6003C136.841 27.4632 136.483 27.3965 136.123 27.4042C135.76 27.402 135.4 27.4718 135.064 27.6095C134.728 27.7472 134.423 27.9501 134.165 28.2064C133.908 28.4628 133.704 28.7676 133.565 29.1031C133.427 29.4387 133.356 29.7985 133.356 30.1616V30.1616Z" fill="white"/>
    <path d="M55.0248 10.4774C55.4923 10.4438 55.9615 10.5144 56.3984 10.6842C56.8354 10.8539 57.2292 11.1185 57.5515 11.4588C57.8738 11.7992 58.1165 12.2068 58.2622 12.6523C58.4079 13.0978 58.4529 13.5702 58.3939 14.0352C58.3939 16.3227 57.1576 17.6376 55.0248 17.6376H52.4385V10.4774H55.0248ZM53.5506 16.625H54.9006C55.2347 16.6449 55.569 16.5902 55.8792 16.4646C56.1895 16.3391 56.4678 16.1459 56.694 15.8993C56.9202 15.6526 57.0886 15.3586 57.1868 15.0386C57.285 14.7187 57.3107 14.3809 57.2619 14.0498C57.3071 13.72 57.2789 13.3842 57.1791 13.0666C57.0794 12.749 56.9107 12.4574 56.685 12.2127C56.4593 11.968 56.1823 11.7762 55.8738 11.6512C55.5653 11.5261 55.233 11.4708 54.9006 11.4892H53.5506V16.625Z" fill="white"/>
    <path d="M59.6497 14.9335C59.6158 14.5784 59.6564 14.2202 59.769 13.8817C59.8816 13.5432 60.0637 13.232 60.3037 12.968C60.5436 12.704 60.836 12.4931 61.1623 12.3488C61.4885 12.2044 61.8413 12.1299 62.198 12.1299C62.5547 12.1299 62.9075 12.2044 63.2337 12.3488C63.5599 12.4931 63.8524 12.704 64.0923 12.968C64.3323 13.232 64.5144 13.5432 64.627 13.8817C64.7396 14.2202 64.7802 14.5784 64.7462 14.9335C64.7808 15.289 64.7407 15.6478 64.6284 15.9868C64.5161 16.3258 64.3341 16.6376 64.0941 16.9021C63.8541 17.1666 63.5614 17.378 63.2349 17.5226C62.9083 17.6673 62.5551 17.742 62.198 17.742C61.8408 17.742 61.4876 17.6673 61.1611 17.5226C60.8345 17.378 60.5419 17.1666 60.3019 16.9021C60.0619 16.6376 59.8799 16.3258 59.7676 15.9868C59.6553 15.6478 59.6151 15.289 59.6497 14.9335ZM63.6493 14.9335C63.6493 13.7623 63.1232 13.0773 62.1997 13.0773C61.2728 13.0773 60.7513 13.7623 60.7513 14.9335C60.7513 16.1142 61.2728 16.7939 62.1997 16.7939C63.1232 16.7939 63.6494 16.1095 63.6494 14.9335H63.6493Z" fill="white"/>
    <path d="M71.5213 17.6374H70.415L69.2982 13.6577H69.2139L68.1018 17.6374H67.0061L65.5166 12.2339H66.5982L67.5662 16.3571H67.6459L68.7568 12.2339H69.7799L70.8908 16.3571H70.9752L71.9385 12.2339H73.0049L71.5213 17.6374Z" fill="white"/>
    <path d="M74.2578 12.2341H75.2844V13.0925H75.3641C75.4993 12.7842 75.7273 12.5258 76.0163 12.3532C76.3054 12.1806 76.641 12.1026 76.9766 12.1298C77.2395 12.1101 77.5035 12.1497 77.749 12.2458C77.9945 12.3419 78.2153 12.4921 78.3949 12.6851C78.5745 12.8781 78.7084 13.109 78.7866 13.3608C78.8649 13.6126 78.8855 13.8788 78.8469 14.1396V17.6376H77.7805V14.4074C77.7805 13.539 77.4031 13.1072 76.6145 13.1072C76.436 13.0989 76.2578 13.1293 76.0921 13.1962C75.9264 13.2632 75.7772 13.3653 75.6546 13.4953C75.5321 13.6254 75.4391 13.7804 75.3821 13.9498C75.325 14.1191 75.3053 14.2988 75.3242 14.4765V17.6377H74.2578L74.2578 12.2341Z" fill="white"/>
    <path d="M80.5459 10.1245H81.6123V17.6374H80.5459V10.1245Z" fill="white"/>
    <path d="M83.095 14.9331C83.0611 14.578 83.1017 14.2197 83.2144 13.8812C83.327 13.5427 83.5091 13.2315 83.7491 12.9675C83.9891 12.7035 84.2815 12.4926 84.6078 12.3483C84.934 12.204 85.2868 12.1294 85.6436 12.1294C86.0003 12.1294 86.3531 12.204 86.6794 12.3483C87.0056 12.4926 87.2981 12.7035 87.538 12.9675C87.778 13.2315 87.9601 13.5427 88.0728 13.8812C88.1854 14.2197 88.2261 14.578 88.1921 14.9331C88.2267 15.2886 88.1865 15.6474 88.0742 15.9864C87.9618 16.3255 87.7798 16.6372 87.5398 16.9017C87.2998 17.1662 87.0071 17.3776 86.6805 17.5222C86.3539 17.6668 86.0007 17.7416 85.6436 17.7416C85.2864 17.7416 84.9332 17.6668 84.6066 17.5222C84.2801 17.3776 83.9874 17.1662 83.7474 16.9017C83.5074 16.6372 83.3253 16.3255 83.213 15.9864C83.1006 15.6474 83.0605 15.2886 83.095 14.9331ZM87.0946 14.9331C87.0946 13.7619 86.5685 13.0769 85.645 13.0769C84.7181 13.0769 84.1966 13.7619 84.1966 14.9332C84.1966 16.1138 84.7181 16.7935 85.645 16.7935C86.5685 16.7935 87.0946 16.1091 87.0946 14.9331H87.0946Z" fill="white"/>
    <path d="M89.3145 16.1091C89.3145 15.1364 90.0387 14.5757 91.3242 14.496L92.7879 14.4116V13.9452C92.7879 13.3745 92.4105 13.0522 91.6816 13.0522C91.0863 13.0522 90.6738 13.2708 90.5555 13.6528H89.523C89.632 12.7247 90.5051 12.1294 91.7309 12.1294C93.0856 12.1294 93.8496 12.8038 93.8496 13.9452V17.6372H92.823V16.8778H92.7387C92.5674 17.1502 92.3269 17.3723 92.0418 17.5213C91.7566 17.6704 91.437 17.7411 91.1156 17.7262C90.8888 17.7498 90.6595 17.7256 90.4426 17.6552C90.2257 17.5847 90.0259 17.4696 89.8562 17.3173C89.6865 17.1649 89.5507 16.9787 89.4573 16.7706C89.364 16.5625 89.3153 16.3371 89.3145 16.1091ZM92.7879 15.6474V15.1956L91.4684 15.28C90.7242 15.3298 90.3867 15.5829 90.3867 16.0593C90.3867 16.5456 90.8086 16.8286 91.3887 16.8286C91.5587 16.8458 91.7304 16.8286 91.8936 16.7781C92.0568 16.7276 92.2082 16.6448 92.3387 16.5346C92.4693 16.4244 92.5763 16.289 92.6535 16.1366C92.7306 15.9842 92.7763 15.8178 92.7879 15.6474Z" fill="white"/>
    <path d="M95.251 14.9333C95.251 13.2259 96.1287 12.1443 97.4939 12.1443C97.8316 12.1287 98.1668 12.2096 98.4602 12.3775C98.7537 12.5453 98.9932 12.7933 99.151 13.0923H99.2307V10.1245H100.297V17.6374H99.2752V16.7837H99.1908C99.0209 17.0807 98.773 17.3255 98.4739 17.4917C98.1748 17.6579 97.8359 17.7391 97.494 17.7265C96.1193 17.7265 95.251 16.6448 95.251 14.9333ZM96.3526 14.9333C96.3526 16.0794 96.8928 16.7691 97.7963 16.7691C98.6951 16.7691 99.2506 16.0695 99.2506 14.938C99.2506 13.8118 98.6893 13.1023 97.7963 13.1023C96.8986 13.1023 96.3525 13.7966 96.3525 14.9333H96.3526Z" fill="white"/>
    <path d="M104.709 14.9335C104.675 14.5784 104.716 14.2202 104.829 13.8817C104.941 13.5432 105.123 13.232 105.363 12.968C105.603 12.704 105.896 12.4931 106.222 12.3488C106.548 12.2044 106.901 12.1299 107.258 12.1299C107.614 12.1299 107.967 12.2044 108.293 12.3488C108.62 12.4931 108.912 12.704 109.152 12.968C109.392 13.232 109.574 13.5432 109.687 13.8817C109.799 14.2202 109.84 14.5784 109.806 14.9335C109.84 15.289 109.8 15.6478 109.688 15.9868C109.576 16.3258 109.394 16.6376 109.154 16.9021C108.914 17.1666 108.621 17.378 108.294 17.5226C107.968 17.6673 107.615 17.742 107.258 17.742C106.9 17.742 106.547 17.6673 106.221 17.5226C105.894 17.378 105.601 17.1666 105.361 16.9021C105.121 16.6376 104.939 16.3258 104.827 15.9868C104.715 15.6478 104.675 15.289 104.709 14.9335ZM108.709 14.9335C108.709 13.7623 108.183 13.0773 107.259 13.0773C106.332 13.0773 105.811 13.7623 105.811 14.9335C105.811 16.1142 106.332 16.7939 107.259 16.7939C108.183 16.7939 108.709 16.1095 108.709 14.9335Z" fill="white"/>
    <path d="M111.236 12.2341H112.263V13.0925H112.343C112.478 12.7842 112.706 12.5258 112.995 12.3532C113.284 12.1806 113.62 12.1026 113.955 12.1298C114.218 12.1101 114.482 12.1497 114.728 12.2458C114.973 12.3419 115.194 12.4921 115.373 12.6851C115.553 12.8781 115.687 13.109 115.765 13.3608C115.843 13.6126 115.864 13.8788 115.825 14.1396V17.6376H114.759V14.4074C114.759 13.539 114.382 13.1072 113.593 13.1072C113.414 13.0989 113.236 13.1293 113.071 13.1962C112.905 13.2632 112.756 13.3653 112.633 13.4953C112.511 13.6254 112.418 13.7804 112.361 13.9498C112.304 14.1191 112.284 14.2988 112.303 14.4765V17.6377H111.236V12.2341Z" fill="white"/>
    <path d="M121.851 10.8887V12.2586H123.022V13.1568H121.851V15.9354C121.851 16.5014 122.084 16.7492 122.615 16.7492C122.751 16.7488 122.887 16.7406 123.022 16.7246V17.6129C122.83 17.6471 122.636 17.6654 122.442 17.6674C121.256 17.6674 120.784 17.2502 120.784 16.2084V13.1568H119.926V12.2585H120.784V10.8887H121.851Z" fill="white"/>
    <path d="M124.479 10.1245H125.536V13.1023H125.62C125.762 12.7911 125.996 12.5312 126.291 12.3579C126.586 12.1847 126.927 12.1066 127.268 12.1343C127.529 12.1201 127.791 12.1637 128.033 12.2622C128.276 12.3606 128.494 12.5114 128.672 12.7038C128.85 12.8962 128.983 13.1255 129.062 13.3753C129.14 13.625 129.163 13.8891 129.128 14.1487V17.6374H128.061V14.4118C128.061 13.5487 127.659 13.1116 126.906 13.1116C126.722 13.0966 126.538 13.1218 126.365 13.1854C126.193 13.2491 126.036 13.3497 125.907 13.4802C125.777 13.6107 125.678 13.7679 125.615 13.9409C125.553 14.1138 125.529 14.2984 125.545 14.4815V17.6374H124.479L124.479 10.1245Z" fill="white"/>
    <path d="M135.347 16.1783C135.202 16.6722 134.888 17.0993 134.46 17.3851C134.032 17.6709 133.517 17.7971 133.005 17.7416C132.649 17.751 132.296 17.6828 131.969 17.5418C131.642 17.4007 131.349 17.1902 131.112 16.9249C130.874 16.6595 130.697 16.3456 130.593 16.005C130.489 15.6645 130.461 15.3053 130.509 14.9525C130.462 14.5987 130.491 14.2388 130.595 13.8971C130.699 13.5555 130.875 13.2402 131.111 12.9725C131.347 12.7048 131.638 12.491 131.964 12.3456C132.29 12.2001 132.644 12.1264 133.001 12.1295C134.504 12.1295 135.411 13.1567 135.411 14.8535V15.2256H131.596V15.2854C131.579 15.4836 131.604 15.6832 131.669 15.8713C131.734 16.0594 131.837 16.2319 131.973 16.3776C132.108 16.5234 132.273 16.6392 132.456 16.7177C132.639 16.7962 132.836 16.8356 133.035 16.8334C133.29 16.864 133.548 16.818 133.777 16.7014C134.006 16.5847 134.195 16.4027 134.32 16.1783L135.347 16.1783ZM131.596 14.4369H134.325C134.338 14.2556 134.314 14.0734 134.253 13.9021C134.191 13.7309 134.095 13.5743 133.97 13.4425C133.845 13.3106 133.693 13.2065 133.525 13.1367C133.357 13.0668 133.177 13.0329 132.995 13.0371C132.81 13.0348 132.627 13.0694 132.457 13.1389C132.286 13.2085 132.131 13.3115 132 13.442C131.87 13.5724 131.767 13.7277 131.697 13.8985C131.628 14.0694 131.593 14.2525 131.596 14.4369H131.596Z" fill="white"/>
</svg>
