<svg width="120" height="120" viewBox="0 0 120 120" fill="none" xmlns="http://www.w3.org/2000/svg">
  <rect opacity="0.05" width="120" height="120" rx="10" fill="#7D17AD"/>
  <g clip-path="url(#clip0)">
    <path d="M74.5613 90.7348C74.2354 89.4307 73.0635 88.5156 71.7191 88.5156H48.2816C46.9373 88.5156 45.7654 89.4307 45.4395 90.7348L41.5332 106.36H78.4676L74.5613 90.7348Z" fill="#9B51E0"/>
    <path d="M71.7187 88.5156H60V106.36H78.4672L74.5609 90.7348C74.235 89.4307 73.0631 88.5156 71.7187 88.5156Z" fill="#7D17AD"/>
    <path d="M81.4844 110H38.5156C36.8977 110 35.5859 108.688 35.5859 107.07C35.5859 105.452 36.8977 104.141 38.5156 104.141H81.4844C83.1023 104.141 84.4141 105.452 84.4141 107.07C84.4141 108.688 83.1023 110 81.4844 110Z" fill="#BB6BD9"/>
    <path d="M81.4844 104.141H60V110H81.4844C83.1023 110 84.4141 108.688 84.4141 107.07C84.4141 105.452 83.1023 104.141 81.4844 104.141Z" fill="#9B51E0"/>
    <path d="M99.2578 26.0156H20.7422C14.8189 26.0156 10 30.8346 10 36.7578V79.7266V83.6328C10 89.5561 14.8189 94.375 20.7422 94.375H99.2578C105.181 94.375 110 89.5561 110 83.6328V79.7266V36.7578C110 30.8346 105.181 26.0156 99.2578 26.0156Z" fill="#7D17AD"/>
    <path d="M99.2578 26.0156H60V94.375H99.2578C105.181 94.375 110 89.5561 110 83.6328V79.7266V36.7578C110 30.8346 105.181 26.0156 99.2578 26.0156Z" fill="#9B51E0"/>
    <path d="M15.8594 36.7578C15.8594 34.0654 18.0498 31.875 20.7422 31.875H99.2578C101.95 31.875 104.141 34.0654 104.141 36.7578V76.7969H15.8594V36.7578Z" fill="#FF9344"/>
    <path d="M99.2578 31.875H60V76.7969H104.141V36.7578C104.141 34.0654 101.95 31.875 99.2578 31.875Z" fill="#FFC178"/>
    <path d="M60 66.6406C59.7164 66.6406 59.4328 66.5994 59.1582 66.517C52.8623 64.6283 47.4604 60.8424 43.5367 55.5689C39.6131 50.2953 37.5391 44.0334 37.5391 37.4604V20.7422C37.5391 19.1242 38.8508 17.8125 40.4688 17.8125C44.1709 17.8125 47.4992 15.7555 49.1547 12.4443L49.567 11.6197C50.0633 10.627 51.0777 10 52.1875 10H67.8125C68.9223 10 69.9367 10.627 70.433 11.6195L70.8453 12.4443C72.5008 15.7555 75.8291 17.8125 79.5312 17.8125C81.1492 17.8125 82.4609 19.1242 82.4609 20.7422V37.4604C82.4609 44.0334 80.3869 50.2953 76.4633 55.5689C72.5396 60.8424 67.1377 64.6283 60.8418 66.517C60.5672 66.5994 60.2836 66.6406 60 66.6406Z" fill="#BB6BD9"/>
    <path d="M79.5312 17.8125C75.8291 17.8125 72.5008 15.7555 70.8453 12.4445L70.433 11.6197C69.9367 10.627 68.9223 10 67.8125 10H60V66.6406C60.2836 66.6406 60.5672 66.5994 60.8418 66.517C67.1377 64.6283 72.5396 60.8424 76.4633 55.5689C80.3869 50.2953 82.4609 44.0334 82.4609 37.4604V20.7422C82.4609 19.1242 81.1492 17.8125 79.5312 17.8125Z" fill="#9B51E0"/>
    <path d="M43.3984 23.399V37.4605C43.3984 48.0574 50.0334 57.2623 60 60.6363C69.9666 57.2623 76.6016 48.0574 76.6016 37.4605V23.399C72.1678 22.5621 68.3131 19.8443 66.0303 15.8594H53.9697C51.6869 19.8443 47.8322 22.5621 43.3984 23.399Z" fill="#F5F5FF"/>
    <path d="M66.0303 15.8594H60V60.6361C69.9666 57.2621 76.6016 48.0572 76.6016 37.4604V23.399C72.1678 22.5621 68.3131 19.8441 66.0303 15.8594Z" fill="#E2E7FA"/>
    <path d="M57.238 46.7741C56.4882 46.7741 55.7384 46.4882 55.1665 45.9159L49.6423 40.3917C48.4981 39.2476 48.4981 37.3927 49.6423 36.2485C50.7862 35.1044 52.6413 35.1044 53.7854 36.2485L57.2382 39.7011L66.2151 30.7243C67.3591 29.5802 69.2142 29.5802 70.3583 30.7243C71.5024 31.8685 71.5024 33.7233 70.3583 34.8675L59.3099 45.9159C58.7376 46.4882 57.9878 46.7741 57.238 46.7741Z" fill="#BB6BD9"/>
    <path d="M66.2148 30.7243L60 36.9392V45.2255L70.358 34.8675C71.5022 33.7233 71.5022 31.8685 70.358 30.7243C69.2139 29.5802 67.3588 29.5802 66.2148 30.7243Z" fill="#7D17AD"/>
    <path d="M38.8086 61H15.3711C12.4095 61 10 63.4095 10 66.3711V105.629C10 108.591 12.4095 111 15.3711 111H38.8086C41.7702 111 44.1797 108.591 44.1797 105.629V66.3711C44.1797 63.4095 41.7702 61 38.8086 61Z" fill="#9B51E0"/>
    <path d="M38.8086 61H27.0898V111H38.8086C41.7702 111 44.1797 108.591 44.1797 105.629V66.3711C44.1797 63.4095 41.7702 61 38.8086 61Z" fill="#7D17AD"/>
    <path d="M12.9297 66.3711C12.9297 65.0249 14.0249 63.9297 15.3711 63.9297H38.8086C40.1548 63.9297 41.25 65.0249 41.25 66.3711V98.3047H12.9297V66.3711Z" fill="#F2C94C"/>
    <path d="M38.8086 63.9297H27.0898V98.3047H41.25V66.3711C41.25 65.0249 40.1548 63.9297 38.8086 63.9297Z" fill="#FF9344"/>
    <path d="M27.0898 106.117C27.8989 106.117 28.5547 105.461 28.5547 104.652C28.5547 103.843 27.8989 103.188 27.0898 103.188C26.2808 103.188 25.625 103.843 25.625 104.652C25.625 105.461 26.2808 106.117 27.0898 106.117Z" fill="#F5F5FF"/>
    <path d="M28.5547 104.652C28.5547 103.843 27.8988 103.188 27.0898 103.188V106.117C27.8988 106.117 28.5547 105.461 28.5547 104.652Z" fill="#E2E7FA"/>
    <path d="M36.8555 106.117H33.9258C33.1168 106.117 32.4609 105.461 32.4609 104.652C32.4609 103.843 33.1168 103.188 33.9258 103.188H36.8555C37.6645 103.188 38.3203 103.843 38.3203 104.652C38.3203 105.461 37.6645 106.117 36.8555 106.117Z" fill="#E2E7FA"/>
    <path d="M20.2539 106.117H17.3242C16.5152 106.117 15.8594 105.461 15.8594 104.652C15.8594 103.843 16.5152 103.188 17.3242 103.188H20.2539C21.0629 103.188 21.7188 103.843 21.7188 104.652C21.7188 105.461 21.0629 106.117 20.2539 106.117Z" fill="#F5F5FF"/>
  </g>
  <defs>
    <clipPath id="clip0">
      <rect width="100" height="100" fill="white" transform="translate(10 10)"/>
    </clipPath>
  </defs>
</svg>
