<svg width="120" height="100" viewBox="0 0 120 100" fill="none" xmlns="http://www.w3.org/2000/svg">
    <path d="M7.56578 0H36.2647C38.1443 0 39.8804 1.08583 40.8183 2.84732L45.5417 9.82594C46.4796 11.5874 48.216 12.6733 50.0953 12.6733H120V92.3491C120 96.5336 116.863 99.9261 112.994 99.9261H7.00587C3.13675 99.9261 0 96.5336 0 92.3491V21.5117C0 15.655 0.836656 9.83314 2.4805 4.25269C3.08269 1.74819 5.17317 0 7.56578 0Z" fill="#D79EEC"/>
    <path d="M103.16 11.3701H10.9199V53.5112H103.16V11.3701Z" fill="#EBF0F3"/>
    <path d="M114.746 3.78857H85.825C83.7683 3.78857 81.9005 5.06232 81.0459 7.04787L76.097 18.5442C75.2421 20.5298 73.3746 21.8035 71.3179 21.8035H0V92.5639C0 96.6708 3.13675 100 7.00587 100H112.994C116.863 100 120 96.6708 120 92.5639V9.3658C120 6.28575 117.647 3.78857 114.746 3.78857Z" fill="#F7D5FF"/>
</svg>
