<svg width="34" height="34" viewBox="0 0 34 34" fill="none" xmlns="http://www.w3.org/2000/svg">
    <rect x="4.42" y="7.14014" width="18.02" height="23.46" fill="#F2F2F2"/>
    <path d="M31.875 19.125C30.0366 19.1205 28.2484 18.5244 26.775 17.425L25.5 16.4688L24.225 17.425C24.1188 17.5047 24.0125 17.5791 23.9063 17.6534V5.84375C23.9054 5.56222 23.7932 5.29245 23.5941 5.09338C23.395 4.8943 23.1253 4.78209 22.8438 4.78125H18.0625V6.90625H21.7813V18.6947C20.9249 18.9807 20.0279 19.1261 19.125 19.125H18.5938V26.4456C18.5936 26.8449 18.6509 27.2421 18.7638 27.625C18.9206 28.1735 19.1869 28.6846 19.5467 29.1275C19.9064 29.5703 20.3521 29.9357 20.8569 30.2016L21.0269 30.2813H3.71875V6.90625H7.4375V4.78125H2.65625C2.37472 4.78209 2.10495 4.8943 1.90588 5.09338C1.7068 5.29245 1.59459 5.56222 1.59375 5.84375V31.3438C1.59459 31.6253 1.7068 31.8951 1.90588 32.0941C2.10495 32.2932 2.37472 32.4054 2.65625 32.4063H22.8438C23.075 32.4056 23.2997 32.3295 23.4838 32.1895C23.6679 32.0495 23.8013 31.8533 23.8638 31.6306L25.5 32.4063L30.1431 30.2016C30.827 29.8414 31.3994 29.3011 31.7983 28.6391C32.1972 27.977 32.4074 27.2185 32.4063 26.4456V19.125H31.875ZM30.2813 26.4456C30.2813 26.8256 30.1793 27.1987 29.9858 27.5258C29.7924 27.8529 29.5146 28.122 29.1816 28.305L25.5 30.0528L21.8184 28.305C21.4854 28.122 21.2076 27.8529 21.0142 27.5258C20.8207 27.1987 20.7187 26.8256 20.7188 26.4456V21.1278C22.4529 20.8635 24.0952 20.1756 25.5 19.125C26.9048 20.1756 28.5471 20.8635 30.2813 21.1278V26.4456Z" fill="#7D17AD"/>
    <path d="M11.6875 15.9375H13.8125V13.8125H15.9375V11.6875H13.8125V9.5625H11.6875V11.6875H9.5625V13.8125H11.6875V15.9375Z" fill="#FF9344"/>
    <path d="M12.75 5.3125C13.3368 5.3125 13.8125 4.8368 13.8125 4.25C13.8125 3.6632 13.3368 3.1875 12.75 3.1875C12.1632 3.1875 11.6875 3.6632 11.6875 4.25C11.6875 4.8368 12.1632 5.3125 12.75 5.3125Z" fill="#BDDBFF"/>
    <path d="M12.75 2.65625C12.4348 2.65625 12.1266 2.74972 11.8646 2.92485C11.6025 3.09997 11.3982 3.34888 11.2776 3.6401C11.1569 3.93132 11.1254 4.25177 11.1869 4.56092C11.2484 4.87008 11.4002 5.15406 11.623 5.37695C11.8459 5.59984 12.1299 5.75163 12.4391 5.81313C12.7482 5.87462 13.0687 5.84306 13.3599 5.72243C13.6511 5.6018 13.9 5.39753 14.0751 5.13544C14.2503 4.87335 14.3437 4.56521 14.3437 4.25C14.3437 3.82731 14.1758 3.42193 13.8769 3.12305C13.5781 2.82416 13.1727 2.65625 12.75 2.65625ZM12.75 4.78125C12.6449 4.78125 12.5422 4.75009 12.4548 4.69172C12.3675 4.63334 12.2994 4.55037 12.2592 4.4533C12.219 4.35623 12.2085 4.24941 12.229 4.14636C12.2494 4.04331 12.3 3.94865 12.3743 3.87435C12.4486 3.80005 12.5433 3.74946 12.6464 3.72896C12.7494 3.70846 12.8562 3.71898 12.9533 3.75919C13.0504 3.7994 13.1333 3.86749 13.1917 3.95485C13.2501 4.04222 13.2812 4.14493 13.2812 4.25C13.2812 4.3909 13.2253 4.52602 13.1256 4.62565C13.026 4.72528 12.8909 4.78125 12.75 4.78125Z" fill="#FF9344"/>
    <path d="M5.84374 17.5312H7.96874V18.5938H5.84374V17.5312Z" fill="#FF9344"/>
    <path d="M9.03124 17.5312H17V18.5938H9.03124V17.5312Z" fill="#FF9344"/>
    <path d="M5.84374 20.7188H7.96874V21.7812H5.84374V20.7188Z" fill="#FF9344"/>
    <path d="M5.84374 23.9062H7.96874V24.9688H5.84374V23.9062Z" fill="#FF9344"/>
    <path d="M5.84374 27.0938H7.96874V28.1563H5.84374V27.0938Z" fill="#FF9344"/>
    <path d="M32.4062 18.5936H31.875C30.1515 18.5893 28.4751 18.0305 27.0937 16.9999L25.8187 16.0436C25.7271 15.9738 25.6152 15.936 25.5 15.936C25.3848 15.936 25.2728 15.9738 25.1812 16.0436L24.4375 16.6014V5.84361C24.4362 5.42131 24.2679 5.01666 23.9693 4.71805C23.6707 4.41943 23.266 4.25112 22.8437 4.24986H18.4981C18.3878 3.94027 18.1849 3.67218 17.9168 3.48207C17.6488 3.29195 17.3286 3.18905 17 3.18736H15.7569C15.5378 2.56474 15.1309 2.02547 14.5923 1.64399C14.0537 1.2625 13.41 1.05762 12.75 1.05762C12.09 1.05762 11.4462 1.2625 10.9076 1.64399C10.369 2.02547 9.96214 2.56474 9.74312 3.18736H8.49999C8.17136 3.18905 7.85123 3.29195 7.58317 3.48207C7.31511 3.67218 7.11214 3.94027 7.00187 4.24986H2.65624C2.23394 4.25112 1.8293 4.41943 1.53068 4.71805C1.23207 5.01666 1.06375 5.42131 1.06249 5.84361V31.3436C1.06375 31.7659 1.23207 32.1706 1.53068 32.4692C1.8293 32.7678 2.23394 32.9361 2.65624 32.9374H22.8437C23.0844 32.9358 23.3215 32.8801 23.5377 32.7743C23.7538 32.6685 23.9433 32.5155 24.0922 32.3264L25.2716 32.8842C25.3426 32.9192 25.4208 32.9373 25.5 32.9373C25.5792 32.9373 25.6573 32.9192 25.7284 32.8842L30.3928 30.6689C31.1621 30.2643 31.806 29.6568 32.2546 28.9123C32.7031 28.1678 32.9393 27.3147 32.9375 26.4455V19.1249C32.9375 18.984 32.8815 18.8488 32.7819 18.7492C32.6823 18.6496 32.5471 18.5936 32.4062 18.5936ZM18.5937 5.31236H22.8437C22.9846 5.31236 23.1198 5.36833 23.2194 5.46796C23.319 5.56758 23.375 5.70271 23.375 5.84361V17.3664C23.0351 17.5784 22.68 17.7648 22.3125 17.9242V6.90611C22.3125 6.76521 22.2565 6.63008 22.1569 6.53046C22.0573 6.43083 21.9221 6.37486 21.7812 6.37486H18.5937V5.31236ZM7.96874 4.78111C7.96874 4.64021 8.02471 4.50508 8.12434 4.40546C8.22397 4.30583 8.3591 4.24986 8.49999 4.24986H10.1469C10.2697 4.2511 10.389 4.20926 10.4841 4.13161C10.5792 4.05396 10.6441 3.94541 10.6675 3.82486C10.765 3.34448 11.0257 2.9126 11.4052 2.6024C11.7847 2.29219 12.2598 2.12273 12.75 2.12273C13.2402 2.12273 13.7153 2.29219 14.0948 2.6024C14.4743 2.9126 14.7349 3.34448 14.8325 3.82486C14.8559 3.94541 14.9207 4.05396 15.0159 4.13161C15.111 4.20926 15.2303 4.2511 15.3531 4.24986H17C17.1409 4.24986 17.276 4.30583 17.3756 4.40546C17.4753 4.50508 17.5312 4.64021 17.5312 4.78111V6.90611H7.96874V4.78111ZM7.43749 7.96861H18.0625C18.2034 7.96861 18.3385 7.91264 18.4381 7.81301C18.5378 7.71338 18.5937 7.57825 18.5937 7.43736H21.25V18.2961C20.5583 18.4904 19.8435 18.5905 19.125 18.5936H18.5937C18.4528 18.5936 18.3177 18.6496 18.2181 18.7492C18.1185 18.8488 18.0625 18.984 18.0625 19.1249V20.7186H9.03124V21.7811H18.0625V23.9061H9.03124V24.9686H18.0625V26.4455C18.0632 26.6622 18.0774 26.8787 18.105 27.0936H9.03124V28.1561H18.3866C18.6158 28.7494 18.9607 29.2912 19.4012 29.7499H4.24999V7.43736H6.90624C6.90624 7.57825 6.96221 7.71338 7.06184 7.81301C7.16147 7.91264 7.2966 7.96861 7.43749 7.96861ZM22.8437 31.8749H2.65624C2.51535 31.8749 2.38022 31.8189 2.28059 31.7193C2.18096 31.6196 2.12499 31.4845 2.12499 31.3436V5.84361C2.12499 5.70271 2.18096 5.56758 2.28059 5.46796C2.38022 5.36833 2.51535 5.31236 2.65624 5.31236H6.90624V6.37486H3.71874C3.57785 6.37486 3.44272 6.43083 3.34309 6.53046C3.24346 6.63008 3.18749 6.76521 3.18749 6.90611V30.2811C3.18749 30.422 3.24346 30.5571 3.34309 30.6568C3.44272 30.7564 3.57785 30.8124 3.71874 30.8124H20.91L23.0456 31.827C22.9821 31.856 22.9135 31.8722 22.8437 31.8749ZM31.875 26.4455C31.8769 27.1177 31.6954 27.7777 31.35 28.3544C31.0045 28.931 30.5083 29.4025 29.9147 29.718L25.5 31.8164L21.0959 29.7233C20.5004 29.4078 20.0022 28.9359 19.6549 28.3583C19.3076 27.7808 19.1244 27.1194 19.125 26.4455V19.6561C21.0785 19.6523 22.9787 19.0189 24.5437 17.8499L25.5 17.1327L26.4562 17.8499C28.0213 19.0189 29.9215 19.6523 31.875 19.6561V26.4455Z" fill="#BB6BD9"/>
    <path d="M15.9375 11.1562H14.3437V9.5625C14.3437 9.4216 14.2878 9.28648 14.1881 9.18685C14.0885 9.08722 13.9534 9.03125 13.8125 9.03125H11.6875C11.5466 9.03125 11.4115 9.08722 11.3118 9.18685C11.2122 9.28648 11.1562 9.4216 11.1562 9.5625V11.1562H9.56249C9.4216 11.1562 9.28647 11.2122 9.18684 11.3118C9.08721 11.4115 9.03124 11.5466 9.03124 11.6875V13.8125C9.03124 13.9534 9.08721 14.0885 9.18684 14.1881C9.28647 14.2878 9.4216 14.3437 9.56249 14.3437H11.1562V15.9375C11.1562 16.0784 11.2122 16.2135 11.3118 16.3131C11.4115 16.4128 11.5466 16.4687 11.6875 16.4687H13.8125C13.9534 16.4687 14.0885 16.4128 14.1881 16.3131C14.2878 16.2135 14.3437 16.0784 14.3437 15.9375V14.3437H15.9375C16.0784 14.3437 16.2135 14.2878 16.3131 14.1881C16.4128 14.0885 16.4687 13.9534 16.4687 13.8125V11.6875C16.4687 11.5466 16.4128 11.4115 16.3131 11.3118C16.2135 11.2122 16.0784 11.1562 15.9375 11.1562ZM15.4062 13.2812H13.8125C13.6716 13.2812 13.5365 13.3372 13.4368 13.4368C13.3372 13.5365 13.2812 13.6716 13.2812 13.8125V15.4062H12.2187V13.8125C12.2187 13.6716 12.1628 13.5365 12.0631 13.4368C11.9635 13.3372 11.8284 13.2812 11.6875 13.2812H10.0937V12.2187H11.6875C11.8284 12.2187 11.9635 12.1628 12.0631 12.0632C12.1628 11.9635 12.2187 11.8284 12.2187 11.6875V10.0937H13.2812V11.6875C13.2812 11.8284 13.3372 11.9635 13.4368 12.0632C13.5365 12.1628 13.6716 12.2187 13.8125 12.2187H15.4062V13.2812Z" fill="#7D17AD"/>
    <path d="M30.3609 20.6018C28.7133 20.3516 27.153 19.6983 25.8187 18.6999C25.7271 18.6301 25.6152 18.5923 25.5 18.5923C25.3848 18.5923 25.2728 18.6301 25.1812 18.6999C23.8469 19.6983 22.2867 20.3516 20.6391 20.6018C20.5137 20.6217 20.3994 20.6855 20.3167 20.7818C20.234 20.8781 20.1882 21.0007 20.1875 21.1277V26.4455C20.1877 26.9196 20.3149 27.3851 20.5559 27.7934C20.797 28.2016 21.1431 28.5379 21.5581 28.7671L21.59 28.783L25.2716 30.5308C25.3426 30.5657 25.4208 30.5839 25.5 30.5839C25.5792 30.5839 25.6573 30.5657 25.7284 30.5308L29.4419 28.7671C29.8565 28.5374 30.2022 28.201 30.4432 27.7928C30.6841 27.3847 30.8117 26.9195 30.8125 26.4455V21.1277C30.8118 21.0007 30.766 20.8781 30.6833 20.7818C30.6006 20.6855 30.4863 20.6217 30.3609 20.6018ZM29.75 26.4455C29.7515 26.725 29.6784 26.9998 29.5384 27.2417C29.3983 27.4835 29.1963 27.6836 28.9531 27.8214L25.5 29.463L22.0575 27.8321C21.8123 27.693 21.6084 27.4914 21.4665 27.2478C21.3247 27.0042 21.2499 26.7274 21.25 26.4455V21.5739C22.7758 21.2765 24.2231 20.665 25.5 19.7783C26.7769 20.665 28.2242 21.2765 29.75 21.5739V26.4455Z" fill="#FF9344"/>
    <path d="M23.2194 25.124L22.4682 25.8752L24.0619 27.469C24.1615 27.5686 24.2966 27.6245 24.4375 27.6245C24.5784 27.6245 24.7135 27.5686 24.8131 27.469L29.0631 23.219L28.3119 22.4678L24.4375 26.3422L23.2194 25.124Z" fill="#7D17AD"/>
</svg>
