<svg width="120" height="120" viewBox="0 0 120 120" fill="none" xmlns="http://www.w3.org/2000/svg">
    <rect opacity="0.05" width="120" height="120" rx="10" fill="#7D17AD"/>
    <rect x="23" y="31" width="53" height="69" fill="#F2F2F2"/>
    <path d="M103.75 66.25C98.3429 66.2367 93.0837 64.4836 88.75 61.25L85 58.4375L81.25 61.25C80.9375 61.4844 80.625 61.7031 80.3125 61.9219V27.1875C80.31 26.3595 79.98 25.566 79.3945 24.9805C78.809 24.395 78.0155 24.065 77.1875 24.0625H63.125V30.3125H74.0625V64.9844C71.5438 65.8257 68.9054 66.2531 66.25 66.25H64.6875V87.7812C64.6871 88.9555 64.8554 90.1237 65.1875 91.25C65.6488 92.8634 66.4321 94.3666 67.4902 95.669C68.5482 96.9714 69.8591 98.0461 71.3437 98.8281L71.8438 99.0625H20.9375V30.3125H31.875V24.0625H17.8125C16.9845 24.065 16.191 24.395 15.6055 24.9805C15.02 25.566 14.69 26.3595 14.6875 27.1875V102.188C14.69 103.016 15.02 103.809 15.6055 104.394C16.191 104.98 16.9845 105.31 17.8125 105.312H77.1875C77.8677 105.311 78.5287 105.087 79.0701 104.675C79.6115 104.263 80.0038 103.686 80.1875 103.031L85 105.312L98.6562 98.8281C100.668 97.7689 102.351 96.1797 103.524 94.2326C104.698 92.2854 105.316 90.0545 105.312 87.7812V66.25H103.75ZM99.0625 87.7812C99.0627 88.8989 98.7626 89.9961 98.1936 90.9582C97.6246 91.9202 96.8077 92.7117 95.8281 93.25L85 98.3906L74.1719 93.25C73.1923 92.7117 72.3754 91.9202 71.8064 90.9582C71.2374 89.9961 70.9373 88.8989 70.9375 87.7812V72.1406C76.038 71.3632 80.8681 69.3399 85 66.25C89.1319 69.3399 93.962 71.3632 99.0625 72.1406V87.7812Z" fill="#7D17AD"/>
    <path d="M44.375 56.875H50.625V50.625H56.875V44.375H50.625V38.125H44.375V44.375H38.125V50.625H44.375V56.875Z" fill="#FF9344"/>
    <path d="M47.5 25.625C49.2259 25.625 50.625 24.2259 50.625 22.5C50.625 20.7741 49.2259 19.375 47.5 19.375C45.7741 19.375 44.375 20.7741 44.375 22.5C44.375 24.2259 45.7741 25.625 47.5 25.625Z" fill="#BDDBFF"/>
    <path d="M47.5 17.8125C46.5729 17.8125 45.6666 18.0874 44.8958 18.6025C44.1249 19.1176 43.5241 19.8496 43.1693 20.7062C42.8145 21.5627 42.7217 22.5052 42.9026 23.4145C43.0834 24.3238 43.5299 25.159 44.1854 25.8146C44.841 26.4701 45.6762 26.9166 46.5855 27.0974C47.4948 27.2783 48.4373 27.1855 49.2938 26.8307C50.1504 26.4759 50.8824 25.8751 51.3975 25.1042C51.9126 24.3334 52.1875 23.4271 52.1875 22.5C52.1875 21.2568 51.6936 20.0645 50.8146 19.1854C49.9355 18.3064 48.7432 17.8125 47.5 17.8125ZM47.5 24.0625C47.191 24.0625 46.8889 23.9709 46.6319 23.7992C46.375 23.6275 46.1747 23.3835 46.0564 23.0979C45.9382 22.8124 45.9072 22.4983 45.9675 22.1952C46.0278 21.8921 46.1766 21.6137 46.3951 21.3951C46.6137 21.1766 46.8921 21.0278 47.1952 20.9675C47.4983 20.9072 47.8124 20.9382 48.0979 21.0564C48.3835 21.1747 48.6275 21.375 48.7992 21.6319C48.9709 21.8889 49.0625 22.191 49.0625 22.5C49.0625 22.9144 48.8979 23.3118 48.6049 23.6049C48.3118 23.8979 47.9144 24.0625 47.5 24.0625Z" fill="#FF9344"/>
    <path d="M27.1875 61.5625H33.4375V64.6875H27.1875V61.5625Z" fill="#FF9344"/>
    <path d="M36.5625 61.5625H60V64.6875H36.5625V61.5625Z" fill="#FF9344"/>
    <path d="M27.1875 70.9375H33.4375V74.0625H27.1875V70.9375Z" fill="#FF9344"/>
    <path d="M27.1875 80.3125H33.4375V83.4375H27.1875V80.3125Z" fill="#FF9344"/>
    <path d="M27.1875 89.6875H33.4375V92.8125H27.1875V89.6875Z" fill="#FF9344"/>
    <path d="M105.312 64.6873H103.75C98.6809 64.6746 93.7504 63.0311 89.6875 59.9998L85.9375 57.1873C85.6681 56.982 85.3387 56.8708 85 56.8708C84.6613 56.8708 84.3319 56.982 84.0625 57.1873L81.875 58.8279V27.1873C81.8713 25.9452 81.3762 24.7551 80.498 23.8768C79.6197 22.9985 78.4296 22.5035 77.1875 22.4998H64.4062C64.0819 21.5892 63.4849 20.8007 62.6965 20.2416C61.9081 19.6824 60.9666 19.3798 60 19.3748H56.3438C55.6996 17.5436 54.5028 15.9575 52.9187 14.8355C51.3346 13.7134 49.4412 13.1108 47.5 13.1108C45.5588 13.1108 43.6654 13.7134 42.0813 14.8355C40.4972 15.9575 39.3004 17.5436 38.6562 19.3748H35C34.0334 19.3798 33.0919 19.6824 32.3035 20.2416C31.5151 20.8007 30.9181 21.5892 30.5938 22.4998H17.8125C16.5704 22.5035 15.3803 22.9985 14.502 23.8768C13.6238 24.7551 13.1287 25.9452 13.125 27.1873V102.187C13.1287 103.429 13.6238 104.619 14.502 105.498C15.3803 106.376 16.5704 106.871 17.8125 106.875H77.1875C77.8952 106.87 78.5928 106.706 79.2284 106.395C79.8641 106.084 80.4215 105.634 80.8594 105.078L84.3281 106.719C84.5372 106.821 84.767 106.875 85 106.875C85.233 106.875 85.4628 106.821 85.6719 106.719L99.3906 100.203C101.653 99.0129 103.547 97.2262 104.866 95.0365C106.186 92.8467 106.88 90.3375 106.875 87.781V66.2498C106.875 65.8354 106.71 65.4379 106.417 65.1449C106.124 64.8519 105.727 64.6873 105.312 64.6873ZM64.6875 25.6248H77.1875C77.6019 25.6248 77.9993 25.7894 78.2924 26.0824C78.5854 26.3754 78.75 26.7729 78.75 27.1873V61.0779C77.7504 61.7013 76.7058 62.2497 75.625 62.7185V30.3123C75.625 29.8979 75.4604 29.5004 75.1674 29.2074C74.8743 28.9144 74.4769 28.7498 74.0625 28.7498H64.6875V25.6248ZM33.4375 24.0623C33.4375 23.6479 33.6021 23.2504 33.8951 22.9574C34.1882 22.6644 34.5856 22.4998 35 22.4998H39.8438C40.2049 22.5034 40.5559 22.3804 40.8357 22.152C41.1154 21.9236 41.3063 21.6043 41.375 21.2498C41.6619 19.8369 42.4284 18.5667 43.5447 17.6543C44.6609 16.7419 46.0583 16.2435 47.5 16.2435C48.9417 16.2435 50.3391 16.7419 51.4553 17.6543C52.5716 18.5667 53.3381 19.8369 53.625 21.2498C53.6937 21.6043 53.8846 21.9236 54.1643 22.152C54.4441 22.3804 54.7951 22.5034 55.1562 22.4998H60C60.4144 22.4998 60.8118 22.6644 61.1049 22.9574C61.3979 23.2504 61.5625 23.6479 61.5625 24.0623V30.3123H33.4375V24.0623ZM31.875 33.4373H63.125C63.5394 33.4373 63.9368 33.2727 64.2299 32.9796C64.5229 32.6866 64.6875 32.2892 64.6875 31.8748H72.5V63.8123C70.4655 64.3838 68.3632 64.6781 66.25 64.6873H64.6875C64.2731 64.6873 63.8757 64.8519 63.5826 65.1449C63.2896 65.4379 63.125 65.8354 63.125 66.2498V70.9373H36.5625V74.0623H63.125V80.3123H36.5625V83.4373H63.125V87.781C63.1272 88.4184 63.169 89.0551 63.25 89.6873H36.5625V92.8123H64.0781C64.7522 94.5572 65.7667 96.1506 67.0625 97.4998H22.5V31.8748H30.3125C30.3125 32.2892 30.4771 32.6866 30.7701 32.9796C31.0632 33.2727 31.4606 33.4373 31.875 33.4373ZM77.1875 103.75H17.8125C17.3981 103.75 17.0007 103.585 16.7076 103.292C16.4146 102.999 16.25 102.602 16.25 102.187V27.1873C16.25 26.7729 16.4146 26.3754 16.7076 26.0824C17.0007 25.7894 17.3981 25.6248 17.8125 25.6248H30.3125V28.7498H20.9375C20.5231 28.7498 20.1257 28.9144 19.8326 29.2074C19.5396 29.5004 19.375 29.8979 19.375 30.3123V99.0623C19.375 99.4767 19.5396 99.8741 19.8326 100.167C20.1257 100.46 20.5231 100.625 20.9375 100.625H71.5L77.7812 103.609C77.5944 103.694 77.3927 103.742 77.1875 103.75ZM103.75 87.781C103.756 89.7581 103.222 91.6993 102.206 93.3954C101.19 95.0915 99.7303 96.4782 97.9844 97.406L85 103.578L72.0469 97.4217C70.2953 96.4938 68.8299 95.1058 67.8084 93.4071C66.787 91.7083 66.2482 89.7632 66.25 87.781V67.8123C71.9955 67.8011 77.5844 65.9381 82.1875 62.4998L85 60.3904L87.8125 62.4998C92.4156 65.9381 98.0045 67.8011 103.75 67.8123V87.781Z" fill="#BB6BD9"/>
    <path d="M56.875 42.8125H52.1875V38.125C52.1875 37.7106 52.0229 37.3132 51.7299 37.0201C51.4368 36.7271 51.0394 36.5625 50.625 36.5625H44.375C43.9606 36.5625 43.5632 36.7271 43.2701 37.0201C42.9771 37.3132 42.8125 37.7106 42.8125 38.125V42.8125H38.125C37.7106 42.8125 37.3132 42.9771 37.0201 43.2701C36.7271 43.5632 36.5625 43.9606 36.5625 44.375V50.625C36.5625 51.0394 36.7271 51.4368 37.0201 51.7299C37.3132 52.0229 37.7106 52.1875 38.125 52.1875H42.8125V56.875C42.8125 57.2894 42.9771 57.6868 43.2701 57.9799C43.5632 58.2729 43.9606 58.4375 44.375 58.4375H50.625C51.0394 58.4375 51.4368 58.2729 51.7299 57.9799C52.0229 57.6868 52.1875 57.2894 52.1875 56.875V52.1875H56.875C57.2894 52.1875 57.6868 52.0229 57.9799 51.7299C58.2729 51.4368 58.4375 51.0394 58.4375 50.625V44.375C58.4375 43.9606 58.2729 43.5632 57.9799 43.2701C57.6868 42.9771 57.2894 42.8125 56.875 42.8125ZM55.3125 49.0625H50.625C50.2106 49.0625 49.8132 49.2271 49.5201 49.5201C49.2271 49.8132 49.0625 50.2106 49.0625 50.625V55.3125H45.9375V50.625C45.9375 50.2106 45.7729 49.8132 45.4799 49.5201C45.1868 49.2271 44.7894 49.0625 44.375 49.0625H39.6875V45.9375H44.375C44.7894 45.9375 45.1868 45.7729 45.4799 45.4799C45.7729 45.1868 45.9375 44.7894 45.9375 44.375V39.6875H49.0625V44.375C49.0625 44.7894 49.2271 45.1868 49.5201 45.4799C49.8132 45.7729 50.2106 45.9375 50.625 45.9375H55.3125V49.0625Z" fill="#7D17AD"/>
    <path d="M99.2969 70.5933C94.451 69.8576 89.8619 67.9361 85.9375 64.9996C85.6681 64.7943 85.3387 64.6831 85 64.6831C84.6613 64.6831 84.3319 64.7943 84.0625 64.9996C80.1381 67.9361 75.549 69.8576 70.7031 70.5933C70.3343 70.6518 69.9983 70.8395 69.755 71.1229C69.5117 71.4062 69.3771 71.7668 69.375 72.1402V87.7808C69.3755 89.1753 69.7497 90.5442 70.4587 91.7451C71.1676 92.9459 72.1855 93.9349 73.4063 94.6089L73.5 94.6558L84.3281 99.7964C84.5372 99.8992 84.767 99.9526 85 99.9526C85.233 99.9526 85.4628 99.8992 85.6719 99.7964L96.5937 94.6089C97.8132 93.9333 98.83 92.9441 99.5387 91.7436C100.247 90.5431 100.623 89.1749 100.625 87.7808V72.1402C100.623 71.7668 100.488 71.4062 100.245 71.1229C100.002 70.8395 99.6657 70.6518 99.2969 70.5933ZM97.5 87.7808C97.5044 88.6028 97.2895 89.4111 96.8775 90.1224C96.4656 90.8338 95.8714 91.4224 95.1562 91.8277L85 96.6558L74.875 91.8589C74.1539 91.4499 73.5541 90.857 73.1368 90.1406C72.7196 89.4241 72.4999 88.6099 72.5 87.7808V73.4527C76.9877 72.5777 81.2444 70.7793 85 68.1714C88.7556 70.7793 93.0123 72.5777 97.5 73.4527V87.7808Z" fill="#FF9344"/>
    <path d="M78.2924 83.895L76.083 86.1044L80.7705 90.7919C81.0635 91.0848 81.4609 91.2494 81.8752 91.2494C82.2895 91.2494 82.6869 91.0848 82.9799 90.7919L95.4799 78.2919L93.2705 76.0825L81.8752 87.4778L78.2924 83.895Z" fill="#7D17AD"/>
</svg>
