<svg width="112" height="46" viewBox="0 0 112 46" fill="none" xmlns="http://www.w3.org/2000/svg">
    <path d="M54.524 17.3244C53.24 17.3244 52.076 17.0484 51.032 16.4964C50 15.9324 49.184 15.1584 48.584 14.1744C47.996 13.1784 47.702 12.0564 47.702 10.8084C47.702 9.5604 47.996 8.4444 48.584 7.4604C49.184 6.4644 50 5.6904 51.032 5.1384C52.076 4.5744 53.246 4.2924 54.542 4.2924C55.634 4.2924 56.618 4.4844 57.494 4.8684C58.382 5.2524 59.126 5.8044 59.726 6.5244L57.854 8.2524C57.002 7.2684 55.946 6.7764 54.686 6.7764C53.906 6.7764 53.21 6.9504 52.598 7.2984C51.986 7.6344 51.506 8.1084 51.158 8.7204C50.822 9.3324 50.654 10.0284 50.654 10.8084C50.654 11.5884 50.822 12.2844 51.158 12.8964C51.506 13.5084 51.986 13.9884 52.598 14.3364C53.21 14.6724 53.906 14.8404 54.686 14.8404C55.946 14.8404 57.002 14.3424 57.854 13.3464L59.726 15.0744C59.126 15.8064 58.382 16.3644 57.494 16.7484C56.606 17.1324 55.616 17.3244 54.524 17.3244ZM69.7232 17.1084L67.2932 13.5984H67.1492H64.6112V17.1084H61.6952V4.5084H67.1492C68.2652 4.5084 69.2312 4.6944 70.0472 5.0664C70.8752 5.4384 71.5112 5.9664 71.9552 6.6504C72.3992 7.3344 72.6212 8.1444 72.6212 9.0804C72.6212 10.0164 72.3932 10.8264 71.9372 11.5104C71.4932 12.1824 70.8572 12.6984 70.0292 13.0584L72.8552 17.1084H69.7232ZM69.6692 9.0804C69.6692 8.3724 69.4412 7.8324 68.9852 7.4604C68.5292 7.0764 67.8632 6.8844 66.9872 6.8844H64.6112V11.2764H66.9872C67.8632 11.2764 68.5292 11.0844 68.9852 10.7004C69.4412 10.3164 69.6692 9.7764 69.6692 9.0804ZM81.0335 17.3244C79.7255 17.3244 78.5435 17.0424 77.4875 16.4784C76.4435 15.9144 75.6215 15.1404 75.0215 14.1564C74.4335 13.1604 74.1395 12.0444 74.1395 10.8084C74.1395 9.5724 74.4335 8.4624 75.0215 7.4784C75.6215 6.4824 76.4435 5.7024 77.4875 5.1384C78.5435 4.5744 79.7255 4.2924 81.0335 4.2924C82.3415 4.2924 83.5175 4.5744 84.5615 5.1384C85.6055 5.7024 86.4275 6.4824 87.0275 7.4784C87.6275 8.4624 87.9275 9.5724 87.9275 10.8084C87.9275 12.0444 87.6275 13.1604 87.0275 14.1564C86.4275 15.1404 85.6055 15.9144 84.5615 16.4784C83.5175 17.0424 82.3415 17.3244 81.0335 17.3244ZM81.0335 14.8404C81.7775 14.8404 82.4495 14.6724 83.0495 14.3364C83.6495 13.9884 84.1175 13.5084 84.4535 12.8964C84.8015 12.2844 84.9755 11.5884 84.9755 10.8084C84.9755 10.0284 84.8015 9.3324 84.4535 8.7204C84.1175 8.1084 83.6495 7.6344 83.0495 7.2984C82.4495 6.9504 81.7775 6.7764 81.0335 6.7764C80.2895 6.7764 79.6175 6.9504 79.0175 7.2984C78.4175 7.6344 77.9435 8.1084 77.5955 8.7204C77.2595 9.3324 77.0915 10.0284 77.0915 10.8084C77.0915 11.5884 77.2595 12.2844 77.5955 12.8964C77.9435 13.5084 78.4175 13.9884 79.0175 14.3364C79.6175 14.6724 80.2895 14.8404 81.0335 14.8404ZM94.259 17.3244C93.263 17.3244 92.297 17.1924 91.361 16.9284C90.437 16.6524 89.693 16.2984 89.129 15.8664L90.119 13.6704C90.659 14.0664 91.301 14.3844 92.045 14.6244C92.789 14.8644 93.533 14.9844 94.277 14.9844C95.105 14.9844 95.717 14.8644 96.113 14.6244C96.509 14.3724 96.707 14.0424 96.707 13.6344C96.707 13.3344 96.587 13.0884 96.347 12.8964C96.119 12.6924 95.819 12.5304 95.447 12.4104C95.087 12.2904 94.595 12.1584 93.971 12.0144C93.011 11.7864 92.225 11.5584 91.613 11.3304C91.001 11.1024 90.473 10.7364 90.029 10.2324C89.597 9.7284 89.381 9.0564 89.381 8.2164C89.381 7.4844 89.579 6.8244 89.975 6.2364C90.371 5.6364 90.965 5.1624 91.757 4.8144C92.561 4.4664 93.539 4.2924 94.691 4.2924C95.495 4.2924 96.281 4.3884 97.049 4.5804C97.817 4.7724 98.489 5.0484 99.065 5.4084L98.165 7.6224C97.001 6.9624 95.837 6.6324 94.673 6.6324C93.857 6.6324 93.251 6.7644 92.855 7.0284C92.471 7.2924 92.279 7.6404 92.279 8.0724C92.279 8.5044 92.501 8.8284 92.945 9.0444C93.401 9.2484 94.091 9.4524 95.015 9.6564C95.975 9.8844 96.761 10.1124 97.373 10.3404C97.985 10.5684 98.507 10.9284 98.939 11.4204C99.383 11.9124 99.605 12.5784 99.605 13.4184C99.605 14.1384 99.401 14.7984 98.993 15.3984C98.597 15.9864 97.997 16.4544 97.193 16.8024C96.389 17.1504 95.411 17.3244 94.259 17.3244ZM105.738 17.3244C104.742 17.3244 103.776 17.1924 102.84 16.9284C101.916 16.6524 101.172 16.2984 100.608 15.8664L101.598 13.6704C102.138 14.0664 102.78 14.3844 103.524 14.6244C104.268 14.8644 105.012 14.9844 105.756 14.9844C106.584 14.9844 107.196 14.8644 107.592 14.6244C107.988 14.3724 108.186 14.0424 108.186 13.6344C108.186 13.3344 108.066 13.0884 107.826 12.8964C107.598 12.6924 107.298 12.5304 106.926 12.4104C106.566 12.2904 106.074 12.1584 105.45 12.0144C104.49 11.7864 103.704 11.5584 103.092 11.3304C102.48 11.1024 101.952 10.7364 101.508 10.2324C101.076 9.7284 100.86 9.0564 100.86 8.2164C100.86 7.4844 101.058 6.8244 101.454 6.2364C101.85 5.6364 102.444 5.1624 103.236 4.8144C104.04 4.4664 105.018 4.2924 106.17 4.2924C106.974 4.2924 107.76 4.3884 108.528 4.5804C109.296 4.7724 109.968 5.0484 110.544 5.4084L109.644 7.6224C108.48 6.9624 107.316 6.6324 106.152 6.6324C105.336 6.6324 104.73 6.7644 104.334 7.0284C103.95 7.2924 103.758 7.6404 103.758 8.0724C103.758 8.5044 103.98 8.8284 104.424 9.0444C104.88 9.2484 105.57 9.4524 106.494 9.6564C107.454 9.8844 108.24 10.1124 108.852 10.3404C109.464 10.5684 109.986 10.9284 110.418 11.4204C110.862 11.9124 111.084 12.5784 111.084 13.4184C111.084 14.1384 110.88 14.7984 110.472 15.3984C110.076 15.9864 109.476 16.4544 108.672 16.8024C107.868 17.1504 106.89 17.3244 105.738 17.3244ZM53.948 26.5084C55.064 26.5084 56.03 26.6944 56.846 27.0664C57.674 27.4384 58.31 27.9664 58.754 28.6504C59.198 29.3344 59.42 30.1444 59.42 31.0804C59.42 32.0044 59.198 32.8144 58.754 33.5104C58.31 34.1944 57.674 34.7224 56.846 35.0944C56.03 35.4544 55.064 35.6344 53.948 35.6344H51.41V39.1084H48.494V26.5084H53.948ZM53.786 33.2584C54.662 33.2584 55.328 33.0724 55.784 32.7004C56.24 32.3164 56.468 31.7764 56.468 31.0804C56.468 30.3724 56.24 29.8324 55.784 29.4604C55.328 29.0764 54.662 28.8844 53.786 28.8844H51.41V33.2584H53.786ZM67.7796 39.3244C66.4716 39.3244 65.2896 39.0424 64.2336 38.4784C63.1896 37.9144 62.3676 37.1404 61.7676 36.1564C61.1796 35.1604 60.8856 34.0444 60.8856 32.8084C60.8856 31.5724 61.1796 30.4624 61.7676 29.4784C62.3676 28.4824 63.1896 27.7024 64.2336 27.1384C65.2896 26.5744 66.4716 26.2924 67.7796 26.2924C69.0876 26.2924 70.2636 26.5744 71.3076 27.1384C72.3516 27.7024 73.1736 28.4824 73.7736 29.4784C74.3736 30.4624 74.6736 31.5724 74.6736 32.8084C74.6736 34.0444 74.3736 35.1604 73.7736 36.1564C73.1736 37.1404 72.3516 37.9144 71.3076 38.4784C70.2636 39.0424 69.0876 39.3244 67.7796 39.3244ZM67.7796 36.8404C68.5236 36.8404 69.1956 36.6724 69.7956 36.3364C70.3956 35.9884 70.8636 35.5084 71.1996 34.8964C71.5476 34.2844 71.7216 33.5884 71.7216 32.8084C71.7216 32.0284 71.5476 31.3324 71.1996 30.7204C70.8636 30.1084 70.3956 29.6344 69.7956 29.2984C69.1956 28.9504 68.5236 28.7764 67.7796 28.7764C67.0356 28.7764 66.3636 28.9504 65.7636 29.2984C65.1636 29.6344 64.6896 30.1084 64.3416 30.7204C64.0056 31.3324 63.8376 32.0284 63.8376 32.8084C63.8376 33.5884 64.0056 34.2844 64.3416 34.8964C64.6896 35.5084 65.1636 35.9884 65.7636 36.3364C66.3636 36.6724 67.0356 36.8404 67.7796 36.8404ZM76.8651 26.5084H79.7811V39.1084H76.8651V26.5084ZM94.3273 26.5084V39.1084H91.9333L85.6513 31.4584V39.1084H82.7713V26.5084H85.1833L91.4473 34.1584V26.5084H94.3273ZM99.9185 28.8844H95.8865V26.5084H106.866V28.8844H102.834V39.1084H99.9185V28.8844Z" fill="white"/>
    <rect y="0.108398" width="36" height="45.5889" rx="10" fill="#7D17AD"/>
    <path d="M18.524 24.5773C17.24 24.5773 16.076 24.3013 15.032 23.7493C14 23.1853 13.184 22.4113 12.584 21.4273C11.996 20.4313 11.702 19.3093 11.702 18.0613C11.702 16.8133 11.996 15.6973 12.584 14.7133C13.184 13.7173 14 12.9433 15.032 12.3913C16.076 11.8273 17.246 11.5453 18.542 11.5453C19.634 11.5453 20.618 11.7373 21.494 12.1213C22.382 12.5053 23.126 13.0573 23.726 13.7773L21.854 15.5053C21.002 14.5213 19.946 14.0293 18.686 14.0293C17.906 14.0293 17.21 14.2033 16.598 14.5513C15.986 14.8873 15.506 15.3613 15.158 15.9733C14.822 16.5853 14.654 17.2813 14.654 18.0613C14.654 18.8413 14.822 19.5373 15.158 20.1493C15.506 20.7613 15.986 21.2413 16.598 21.5893C17.21 21.9253 17.906 22.0933 18.686 22.0933C19.946 22.0933 21.002 21.5953 21.854 20.5993L23.726 22.3273C23.126 23.0593 22.382 23.6173 21.494 24.0013C20.606 24.3853 19.616 24.5773 18.524 24.5773Z" fill="white"/>
    <ellipse cx="18" cy="34.3002" rx="3" ry="3.10833" fill="white"/>
</svg>
