<svg width="100" height="100" viewBox="0 0 100 100" fill="none" xmlns="http://www.w3.org/2000/svg">
    <path opacity="0.2" fill-rule="evenodd" clip-rule="evenodd" d="M48.3959 0.00237931C71.4767 -0.225664 91.5632 15.9628 98.199 38.1906C104.411 58.9998 93.9477 80.5516 76.0987 92.7979C59.8342 103.957 38.7565 101.481 22.7427 89.9615C6.31347 78.1428 -4.05099 58.6705 1.51673 39.1459C7.70609 17.4414 25.9402 0.224246 48.3959 0.00237931Z" fill="#7D17AD"/>
    <path d="M45.5143 36.1165C50.5979 36.1165 54.7189 31.9991 54.7189 26.92C54.7189 21.841 50.5979 17.7236 45.5143 17.7236C40.4306 17.7236 36.3096 21.841 36.3096 26.92C36.3096 31.9991 40.4306 36.1165 45.5143 36.1165Z" fill="#7D17AD"/>
    <path d="M67.8974 38.9258C65.8321 38.9258 64.1579 40.5985 64.1579 42.662V39.6495C64.1579 37.5861 62.4836 35.9133 60.4183 35.9133C58.353 35.9133 56.6787 37.5861 56.6787 39.6495V38.1405C56.6787 36.0771 55.0044 34.4043 52.9391 34.4043C50.8738 34.4043 49.1995 36.0771 49.1995 38.1405V25.5214C49.1995 23.4579 47.5253 21.7852 45.46 21.7852C43.3947 21.7852 41.7204 23.4579 41.7204 25.5214V52.29C41.7204 52.7834 41.1138 53.0197 40.7795 52.6564L34.7929 46.1517C33.3957 44.6336 31.0582 44.5846 29.5986 46.043C28.1815 47.4589 27.9477 49.9697 29.079 51.6224L38.644 65.5952C40.2494 67.9404 42.6899 69.5854 45.4675 70.1945C45.6928 70.1945 45.8755 70.377 45.8755 70.6022V76.9067C45.8755 77.3283 46.2175 77.6699 46.6394 77.6699H68.4788C68.9007 77.6699 69.2427 77.3283 69.2427 76.9067V71.3874C69.2427 70.9736 69.3203 70.5636 69.4715 70.1784L69.7612 69.4406C70.955 66.3998 71.5875 63.1696 71.6325 59.9055L71.6369 56.0371V42.6619C71.637 40.5986 69.9628 38.9258 67.8974 38.9258Z" fill="#FFEFE7"/>
    <path d="M67.8974 38.9258C65.8321 38.9258 64.1579 40.5985 64.1579 42.662V39.6495C64.1579 37.5861 62.4836 35.9133 60.4183 35.9133C58.353 35.9133 56.6787 37.5861 56.6787 39.6495V38.1405C56.6787 36.0771 55.0044 34.4043 52.9391 34.4043C50.8738 34.4043 49.1995 36.0771 49.1995 38.1405V25.5214C49.1995 23.4579 47.5253 21.7852 45.46 21.7852C43.3947 21.7852 41.7204 23.4579 41.7204 25.5214V52.29C41.7204 52.7834 41.1138 53.0197 40.7795 52.6564L34.7929 46.1517C33.3957 44.6336 31.0582 44.5846 29.5986 46.043C28.1815 47.4589 27.9477 49.9697 29.079 51.6224L38.644 65.5952C40.2494 67.9404 42.6899 69.5854 45.4675 70.1945C45.6928 70.1945 45.8755 70.377 45.8755 70.6022V76.9067C45.8755 77.3283 46.2175 77.6699 46.6394 77.6699H68.4788C68.9007 77.6699 69.2427 77.3283 69.2427 76.9067V71.3874C69.2427 70.9736 69.3203 70.5636 69.4715 70.1784L69.7612 69.4406C70.955 66.3998 71.5875 63.1696 71.6325 59.9055L71.6369 56.0371V42.6619C71.637 40.5986 69.9628 38.9258 67.8974 38.9258Z" fill="#FFA83D"/>
    <path d="M41.7207 52.2568C43.2033 52.2568 44.4053 51.056 44.4053 49.5747V25.3435C44.4053 24.2185 44.8232 23.2017 45.5004 22.4645C45.7127 22.2337 45.9505 22.0305 46.2088 21.8601C45.967 21.8109 45.7167 21.7852 45.4603 21.7852C44.4282 21.7852 43.493 22.2039 42.8158 22.8793C42.1386 23.5558 41.7207 24.489 41.7207 25.5214V52.2568Z" fill="#FFE0D1"/>
    <path d="M67.1364 42.9812C67.1364 41.31 68.2359 39.8933 69.752 39.4165C69.2051 39.1039 68.5724 38.9258 67.8978 38.9258C65.8324 38.9258 64.1582 40.5984 64.1582 42.6607V44.8173C64.1582 44.899 64.2245 44.9651 64.3061 44.9651H65.1506C66.2474 44.9652 67.1364 44.0769 67.1364 42.9812Z" fill="#FFE0D1"/>
    <path d="M61.821 36.1847C61.4051 36.0159 60.9568 35.9215 60.4823 35.9136C58.3911 35.8786 56.6354 37.567 56.6795 39.727V45.4951C58.2331 45.4951 59.4926 44.2367 59.4926 42.6845V39.6493C59.4925 38.0829 60.4529 36.74 61.821 36.1847Z" fill="#FFE0D1"/>
    <path d="M54.2231 34.6297C53.8025 34.4758 53.3495 34.3958 52.874 34.4039C50.8209 34.4392 49.2002 36.1159 49.2002 38.221V45.3013C50.6213 45.3013 51.7733 44.1502 51.7733 42.7304V38.1396C51.7732 36.5279 52.7918 35.1539 54.2231 34.6297Z" fill="#FFE0D1"/>
    <path d="M32.2441 33.9592C31.9043 33.9592 31.5784 33.7679 31.4229 33.441C30.4256 31.3444 29.9199 29.097 29.9199 26.7609C29.9199 24.4248 30.4256 22.1772 31.4229 20.0808C31.6383 19.628 32.1801 19.4353 32.6336 19.6507C33.0868 19.8659 33.2795 20.4074 33.0641 20.8603C32.1834 22.7114 31.737 24.6967 31.737 26.761C31.737 28.8254 32.1835 30.8107 33.0641 32.6617C33.2795 33.1145 33.0868 33.656 32.6336 33.8714C32.5076 33.9308 32.3748 33.9592 32.2441 33.9592Z" fill="#97C9F9"/>
    <path d="M58.7842 33.9592C58.6535 33.9592 58.5207 33.9309 58.3948 33.8711C57.9416 33.6559 57.7488 33.1144 57.9642 32.6616C58.8447 30.8104 59.2913 28.8251 59.2913 26.7609C59.2913 24.6966 58.8447 22.7113 57.9642 20.8601C57.7488 20.4073 57.9415 19.8658 58.3948 19.6506C58.848 19.4354 59.39 19.628 59.6054 20.0809C60.6028 22.1775 61.1084 24.425 61.1084 26.761C61.1084 29.0969 60.6028 31.3444 59.6054 33.4411C59.4498 33.7679 59.124 33.9592 58.7842 33.9592Z" fill="#97C9F9"/>
    <path d="M48.3121 70.1128C48.3121 68.9577 47.6582 67.8999 46.6211 67.3894C44.8288 66.5073 42.117 64.9947 41.08 63.4805L31.298 49.1915C30.8341 48.5125 30.6087 47.7367 30.6087 46.9669C30.6087 46.3947 30.7331 45.7006 30.9755 45.1777C30.475 45.3512 30.003 45.6391 29.5986 46.0431C28.1815 47.4589 27.9477 49.9697 29.079 51.6224L38.644 65.5952C40.2494 67.9405 42.6899 69.5854 45.4675 70.1945C45.6928 70.1945 45.8755 70.3771 45.8755 70.6022V76.9067C45.8755 77.3283 46.2174 77.6699 46.6394 77.6699H48.3121V70.1128Z" fill="#FFE0D1"/>
</svg>
