<svg width="92" height="100" viewBox="0 0 92 100" fill="none" xmlns="http://www.w3.org/2000/svg">
    <path opacity="0.2" fill-rule="evenodd" clip-rule="evenodd" d="M50.0174 0.0714466C65.0135 0.789321 79.1849 8.43127 87.3374 21.0283C94.6815 32.3761 91.9841 46.4849 88.507 59.5444C85.2373 71.8249 79.7485 83.3396 68.9566 90.0629C56.405 97.8825 41.0545 103.393 27.4557 97.579C13.3226 91.5364 6.0578 76.5458 2.43 61.6193C-1.27494 46.3753 -1.67151 29.6407 7.92665 17.2268C17.673 4.62119 34.0937 -0.690831 50.0174 0.0714466Z" fill="#7D17AD"/>
    <path d="M65.0938 27.28C55.364 27.28 45.2807 18.2692 45.1809 18.1789C44.5107 17.5719 43.4892 17.5719 42.8191 18.1789C42.7187 18.2699 32.6619 27.28 22.9062 27.28C21.9355 27.28 21.1484 28.0663 21.1484 29.0362V50.0687C21.1484 67.1071 33.8323 73.9154 43.373 77.5545C43.575 77.6315 43.7874 77.6699 44 77.6699C44.2126 77.6699 44.425 77.6314 44.627 77.5545C58.0044 72.452 66.8516 64.4929 66.8516 50.0687V29.0362C66.8516 28.0663 66.0645 27.28 65.0938 27.28Z" fill="#7D17AD"/>
    <path d="M44 35.4033C37.2152 35.4033 31.6953 40.9183 31.6953 47.697C31.6953 54.4758 37.2152 59.9907 44 59.9907C50.7848 59.9907 56.3047 54.4758 56.3047 47.697C56.3047 40.9183 50.7848 35.4033 44 35.4033ZM48.7585 47.1826L43.4851 52.4513C43.142 52.7942 42.6921 52.9658 42.2422 52.9658C41.7923 52.9658 41.3424 52.7943 40.9993 52.4513L39.2415 50.695C38.555 50.0092 38.555 48.8972 39.2415 48.2114C39.9279 47.5255 41.0409 47.5255 41.7274 48.2114L42.2423 48.7257L46.2729 44.6989C46.9592 44.013 48.0723 44.013 48.7588 44.6989C49.4451 45.3848 49.4451 46.4967 48.7585 47.1826Z" fill="#FFA83D"/>
</svg>
