<svg width="105" height="100" viewBox="0 0 105 100" fill="none" xmlns="http://www.w3.org/2000/svg">
    <path opacity="0.2" fill-rule="evenodd" clip-rule="evenodd" d="M51.8614 0C80.2534 0 105 21.3214 105 49.8416C105 78.4463 80.3376 100 51.8614 100C23.7466 100 0 78.0833 0 49.8416C0 21.6855 23.8319 0 51.8614 0Z" fill="#7D17AD"/>
    <path d="M70.6228 65.5367C70.6228 65.5415 70.6228 65.5465 70.6228 65.5526C65.7047 70.0086 59.1761 72.7229 52.0151 72.7229C44.853 72.7229 38.3243 70.0086 33.4062 65.5526C33.4062 65.5465 33.4062 65.5417 33.4062 65.5367C33.4062 58.1254 37.7469 51.7279 44.0259 48.7422C46.3856 51.0937 49.1486 52.3608 52.0153 52.3608C54.8831 52.3608 57.6448 51.0937 60.0058 48.7422C66.2845 51.7279 70.6228 58.1253 70.6228 65.5367Z" fill="#7D17AD"/>
    <path d="M52.0148 25.3335C57.6992 25.3335 62.3078 29.9369 62.3078 35.6162C62.3078 41.2967 57.6992 49.0647 52.0148 49.0647C46.3303 49.0647 41.7217 41.2967 41.7217 35.6162C41.7217 29.9369 46.3303 25.3335 52.0148 25.3335Z" fill="#FFA83D"/>
    <path opacity="0.6" d="M43.3401 45.4496C43.6556 45.8987 43.9822 46.3198 44.3197 46.7154L43.2927 47.2034C39.8742 48.8283 36.9821 51.371 34.9269 54.5563C33.2554 57.1476 32.2078 60.0689 31.8435 63.1143C28.129 62.1027 24.7715 60.2272 22 57.7161V57.7027C22 51.2444 25.7827 45.6698 31.2538 43.0674C33.3103 45.1171 35.7175 46.2211 38.2149 46.2211C39.8511 46.2211 41.4494 45.7476 42.9345 44.8445C43.0648 45.0491 43.2013 45.2512 43.3401 45.4496Z" fill="#7D17AD"/>
    <path d="M40.0167 35.6158C40.0167 37.7507 40.5723 40.0998 41.5614 42.3078C40.5272 42.9626 39.3978 43.3484 38.2149 43.3484C33.2615 43.3484 29.2461 36.5797 29.2461 31.6295C29.2461 26.6805 33.2615 22.6699 38.2149 22.6699C40.962 22.6699 43.4218 23.9041 45.0664 25.8479C42.0122 28.0243 40.0167 31.5918 40.0167 35.6158Z" fill="#EFC59C"/>
    <path opacity="0.4" d="M60.6602 45.4496C60.3447 45.8987 60.0181 46.3198 59.6807 46.7154L60.7077 47.2034C64.1261 48.8283 67.0182 51.371 69.0734 54.5563C70.7449 57.1476 71.7926 60.0689 72.1568 63.1143C75.8713 62.1027 79.2288 60.2272 82.0003 57.7161V57.7027C82.0003 51.2444 78.2176 45.6698 72.7465 43.0674C70.69 45.1171 68.2828 46.2211 65.7854 46.2211C64.1493 46.2211 62.551 45.7476 61.0658 44.8445C60.9355 45.0491 60.7991 45.2512 60.6602 45.4496Z" fill="#7D17AD"/>
    <path d="M63.9832 35.6158C63.9832 37.7507 63.4277 40.0998 62.4385 42.3078C63.4728 42.9626 64.6021 43.3484 65.7851 43.3484C70.7385 43.3484 74.7538 36.5797 74.7538 31.6295C74.7538 26.6805 70.7385 22.6699 65.7851 22.6699C63.0379 22.6699 60.5782 23.9041 58.9336 25.8479C61.9878 28.0243 63.9832 31.5918 63.9832 35.6158Z" fill="#EFC59C"/>
</svg>
