<svg width="120" height="120" viewBox="0 0 120 120" fill="none" xmlns="http://www.w3.org/2000/svg">
    <rect opacity="0.05" width="120" height="120" rx="10" fill="#7D17AD"/>
    <path d="M86.1584 20.8723C66.9501 21.2306 53.5695 11.5251 44.314 11.7001C35.0584 11.8751 15.714 17.5584 16.5112 60.1445C17.3084 102.731 43.5779 108.489 53.7612 108.3C101.436 107.408 120.181 20.2362 86.1584 20.8723Z" fill="#FF9344" fill-opacity="0.6"/>
    <path d="M86.389 78.0554C86.389 81.111 83.889 83.611 80.8335 83.611H33.6112C30.5557 83.611 28.0557 81.111 28.0557 78.0554C28.0557 71.7554 30.0612 66.9443 36.389 66.9443H78.0557C82.8001 66.9443 86.389 69.9499 86.389 78.0554Z" fill="#F3F3F1"/>
    <path d="M36.389 83.6112V87.7779C36.389 90.0834 34.5279 91.9446 32.2223 91.9446C29.9168 91.9446 28.0557 90.0834 28.0557 87.7779V78.0557C28.0557 81.1112 30.5557 83.6112 33.6112 83.6112H36.389Z" fill="#FF9344"/>
    <path d="M86.389 78.0557V87.7779C86.389 90.0834 84.5279 91.9446 82.2223 91.9446C79.9168 91.9446 78.0557 90.0834 78.0557 87.7779V83.6112H80.8334C83.889 83.6112 86.389 81.1112 86.389 78.0557Z" fill="#FF9344"/>
    <path d="M81.0831 67.5278C80.1665 67.1389 79.1387 66.9445 78.0553 66.9445H36.3887C35.3331 66.9445 34.3053 67.1389 33.3887 67.5278L39.1387 53.6945C39.9998 51.6389 42.0276 50.2778 44.2498 50.2778H70.1942C72.4165 50.2778 74.4442 51.6389 75.3053 53.6945L81.0831 67.5278Z" fill="#7D17AD"/>
    <path d="M76.6665 64.1668C76.6665 64.1668 91.9442 57.7196 91.9442 44.8223C91.9442 39.664 91.9442 33.214 91.9442 33.214L76.6665 28.0557L61.3887 33.214V44.8223C61.3887 57.7196 76.6665 64.1668 76.6665 64.1668Z" fill="#7D17AD"/>
    <path d="M39.1668 83.611H33.6112C30.5557 83.611 28.0557 81.111 28.0557 78.0554V75.2777C28.0557 74.7499 28.1112 74.2221 28.1946 73.6943C28.4168 72.6666 28.8057 71.7221 29.3334 70.861C29.4723 70.6388 29.6112 70.4443 29.7779 70.2499C29.9168 70.0554 30.0834 69.861 30.2501 69.6666C31.0834 68.7221 32.1668 67.9721 33.389 67.5277C34.3057 67.1388 35.3334 66.9443 36.389 66.9443H41.9446C40.889 66.9443 39.8612 67.1388 38.9446 67.5277C37.7223 67.9721 36.639 68.7221 35.8057 69.6666C35.639 69.861 35.4723 70.0554 35.3334 70.2499C35.1668 70.4443 35.0279 70.6388 34.889 70.861C34.3612 71.7221 33.9723 72.6666 33.7501 73.6943C33.6668 74.2221 33.6112 74.7499 33.6112 75.2777V78.0554C33.6112 81.111 36.1112 83.611 39.1668 83.611Z" fill="#D5DBE1"/>
    <path d="M35.0001 90.8612C34.2779 91.5279 33.3057 91.9446 32.2223 91.9446C29.9168 91.9446 28.0557 90.0834 28.0557 87.7779V78.0557C28.0557 81.1112 30.5557 83.6112 33.6112 83.6112V87.7779C33.6112 89.0001 34.139 90.1112 35.0001 90.8612Z" fill="#7D17AD"/>
    <path d="M83.6112 83.6112V87.7779C83.6112 89.0001 84.139 90.1112 85.0001 90.8612C84.2779 91.5279 83.3057 91.9446 82.2223 91.9446C79.9168 91.9446 78.0557 90.0834 78.0557 87.7779V83.6112H80.8334C83.889 83.6112 86.389 81.1112 86.389 78.0557V83.6112H83.6112Z" fill="#7D17AD"/>
    <path d="M49.8053 50.2778C47.5831 50.2778 45.5553 51.6389 44.6942 53.6945L39.1942 66.9445H36.3887C35.3331 66.9445 34.3053 67.1389 33.3887 67.5278L39.1387 53.6945C39.9998 51.6389 42.0276 50.2778 44.2498 50.2778H49.8053Z" fill="#FF9344"/>
    <path d="M79.4442 62.7223C77.8054 63.6945 76.6665 64.1668 76.6665 64.1668C76.6665 64.1668 61.3887 57.7223 61.3887 44.8334C61.3887 37.0834 61.3887 33.2223 61.3887 33.2223L76.6665 28.0557L79.4442 29.0001L66.9442 33.2223V44.8334C66.9442 54.2223 75.0553 60.1945 79.4442 62.7223Z" fill="#FF9344"/>
    <path d="M80.8338 85.6947H33.6115C29.3977 85.6947 25.9727 82.2697 25.9727 78.0558V75.278C25.9727 69.5336 30.6449 64.8613 36.3893 64.8613H65.1393V69.028H36.3893C32.9421 69.028 30.1393 71.8308 30.1393 75.278V78.0558C30.1393 79.9697 31.6977 81.528 33.6115 81.528H80.8338C82.7477 81.528 84.306 79.9697 84.306 78.0558V75.278C84.306 73.7141 83.7227 72.2252 82.6671 71.0808L85.7254 68.2502C87.4977 70.1641 88.4754 72.6613 88.4754 75.2752V78.053C88.4727 82.2697 85.0477 85.6947 80.8338 85.6947Z" fill="#7D17AD"/>
    <path d="M32.2227 94.0279C28.7754 94.0279 25.9727 91.2251 25.9727 87.7779V78.0557H30.1393V87.7779C30.1393 88.9279 31.0727 89.8612 32.2227 89.8612C33.3727 89.8612 34.306 88.9279 34.306 87.7779V83.6112H38.4727V87.7779C38.4727 91.2251 35.6699 94.0279 32.2227 94.0279Z" fill="#7D17AD"/>
    <path d="M82.2227 94.0279C78.7754 94.0279 75.9727 91.2251 75.9727 87.7779V83.6112H80.1393V87.7779C80.1393 88.9279 81.0727 89.8612 82.2227 89.8612C83.3727 89.8612 84.306 88.9279 84.306 87.7779V78.0557H88.4727V87.7779C88.4727 91.2251 85.6699 94.0279 82.2227 94.0279Z" fill="#7D17AD"/>
    <path d="M35.5337 67.7473L31.6865 66.1445L37.2143 52.8945C38.4087 50.0389 41.1699 48.1973 44.2476 48.1973H53.6643V52.3639H44.2476C42.8754 52.3639 41.5921 53.2223 41.0587 54.5028L35.5337 67.7473Z" fill="#BB6BD9"/>
    <path d="M36.3887 73.1943H44.722V77.361H36.3887V73.1943Z" fill="#BB6BD9"/>
    <path d="M69.7227 73.1943H78.056V77.361H69.7227V73.1943Z" fill="#BB6BD9"/>
    <path d="M76.6668 66.2502C76.3918 66.2502 76.1168 66.1947 75.8557 66.0863C75.1779 65.8002 59.3057 58.9391 59.3057 44.8224V33.2141C59.3057 32.3197 59.8751 31.528 60.7223 31.2419L76.0001 26.0836C76.4307 25.9363 76.9001 25.9363 77.3307 26.0836L92.6084 31.2419C93.4557 31.528 94.0251 32.3224 94.0251 33.2141V44.8224C94.0251 58.9391 78.1501 65.803 77.4751 66.0863C77.2168 66.1947 76.9418 66.2502 76.6668 66.2502ZM63.4723 34.7113V44.8224C63.4723 54.5891 73.6751 60.3808 76.664 61.8669C79.6501 60.3724 89.8612 54.553 89.8612 44.8224V34.7113L76.6668 30.2558L63.4723 34.7113Z" fill="#9B51E0"/>
    <path d="M75.2781 52.3613C75.2392 52.3613 75.2003 52.3613 75.1614 52.3585C74.5697 52.3252 74.0197 52.0418 73.6503 51.5807L68.0947 44.6363L71.3475 42.0307L75.4503 47.1585L83.5281 39.0835L86.4753 42.0307L76.7531 51.7529C76.3586 52.1418 75.8281 52.3613 75.2781 52.3613Z" fill="#FF9344"/>
    <path d="M61.3893 98.889C59.0921 98.889 57.2227 97.0196 57.2227 94.7223C57.2227 92.4251 59.0921 90.5557 61.3893 90.5557C63.6866 90.5557 65.556 92.4251 65.556 94.7223C65.556 97.0196 63.6866 98.889 61.3893 98.889ZM61.3893 93.3334C60.6227 93.3334 60.0004 93.9557 60.0004 94.7223C60.0004 95.489 60.6227 96.1112 61.3893 96.1112C62.156 96.1112 62.7782 95.489 62.7782 94.7223C62.7782 93.9557 62.156 93.3334 61.3893 93.3334Z" fill="#A4AFC1"/>
</svg>
